<svg width="120" height="100" xmlns="http://www.w3.org/2000/svg" xml:space="preserve" version="1.1">

 <g>
  <title>Layer 1</title>
  <g id="svg_1">
   <path id="svg_2" clip-rule="evenodd" fill-rule="evenodd" d="m1.22,0.04l115.79,0c0.14,-0.02 0.28,-0.04 0.43,-0.04c0.15,0 0.29,0.01 0.43,0.04c0.21,0.01 0.4,0.06 0.57,0.16c0.91,0.38 1.54,1.25 1.54,2.27l0,99.12c0,0.09 -0.01,0.19 -0.02,0.28c1.73,0.91 2.92,2.73 2.92,4.82l0,6.65c0,2.99 -2.45,5.44 -5.44,5.44l0,0c-2.99,0 -5.44,-2.45 -5.44,-5.44l0,-6.65c0,-2.08 1.19,-3.9 2.92,-4.82c-0.01,-0.09 -0.02,-0.18 -0.02,-0.28l0,-91.3l-113.68,0c-0.67,0 -1.22,-0.54 -1.22,-1.21l0,-7.83c0,-0.67 0.55,-1.21 1.22,-1.21l0,0zm1.99,92.17l103.98,0l0,4.91l-103.98,0l0,-4.91l0,0zm0,-12.5l103.98,0l0,4.91l-103.98,0l0,-4.91l0,0zm0,-12.5l103.98,0l0,4.91l-103.98,0l0,-4.91l0,0zm0,-12.5l103.98,0l0,4.91l-103.98,0l0,-4.91l0,0zm0,-12.51l103.98,0l0,4.91l-103.98,0l0,-4.91l0,0zm0,-12.5l103.98,0l0,4.91l-103.98,0l0,-4.91l0,0zm0,-12.5l103.98,0l0,4.91l-103.98,0l0,-4.91l0,0z" class="st0"/>
  </g>
 </g>
</svg>